<?xml version="1.0" encoding="utf-8"?>
<!-- Generator: Adobe Illustrator 23.0.3, SVG Export Plug-In . SVG Version: 6.00 Build 0)  -->
<svg version="1.1" baseProfile="basic" id="Layer_1"
	 xmlns="http://www.w3.org/2000/svg" xmlns:xlink="http://www.w3.org/1999/xlink" x="0px" y="0px" viewBox="0 0 1291.3 306.2"
	 xml:space="preserve">
<style type="text/css">
	.st0{fill:#FFFFFF;}
</style>
<g>
	<g>
		
			<image style="overflow:visible;opacity:0.3;" width="181" height="266" xlink:href="97FE95F2.png"  transform="matrix(0.9945 0 0 0.9945 -4.5702 -3.7578)">
		</image>
		<g>
			<path class="st0" d="M83.6,32.2h54.7c-12.5,59.1-25.1,118.2-37.6,177.3c-18.3,0-36.5,0-54.8,0C58.4,150.4,71,91.3,83.6,32.2z"/>
		</g>
	</g>
	<g>
		
			<image style="overflow:visible;opacity:0.3;" width="364" height="266" xlink:href="97FE95F3.png"  transform="matrix(0.9962 0 0 0.9962 63.614 -3.9926)">
		</image>
		<g>
			<path class="st0" d="M152.3,32.2H219c9.9,35.3,19.6,70.6,29.4,105.9c24.8-35.3,49.6-70.6,74.4-105.9h66.7
				c-2,11.3-4.7,22.5-7,33.8c-10.2,47.8-20.3,95.7-30.5,143.5c-18.3,0-36.5,0-54.8,0c5.2-24.4,10.3-48.7,15.6-73.1
				c-17.2,24.3-34.3,48.7-51.4,73.1c-18.7,0-37.4,0-56.1,0c-6.9-24.4-13.4-48.9-20.5-73.2c-4.9,24.5-10.3,48.8-15.5,73.2
				c-18.2,0-36.5,0-54.7,0C127.1,150.4,139.7,91.3,152.3,32.2z"/>
		</g>
	</g>
	<g>
		
			<image style="overflow:visible;opacity:0.3;" width="308" height="266" xlink:href="97FE95FE.png"  transform="matrix(0.9962 0 0 0.9962 315.5086 -3.9926)">
		</image>
		<g>
			<g>
				<path class="st0" d="M403.6,32.2h148.2c9.6,0.9,19.6,4.2,26,11.8c7.6,9.1,8.6,21.8,7.4,33.1c-15.2,21.8-30.6,43.5-46,65.3
					c-4.5,0.9-8.9,1.9-13.5,1.9c-30.4,0-60.7,0-91.1,0c-4.6,21.7-9.2,43.4-13.8,65.1c-18.3,0-36.5,0-54.8,0
					C378.5,150.4,391,91.3,403.6,32.2z M444.6,97.4c28.1,0,56.1,0,84.2,0c2.3-5.6,3.2-11.5,4.1-17.4l-0.9-1c-27.9,0-55.7,0-83.6,0
					C447.1,85.2,445.7,91.3,444.6,97.4z"/>
			</g>
		</g>
	</g>
	<g>
		
			<image style="overflow:visible;opacity:0.3;" width="362" height="319" xlink:href="97FE95F1.png"  transform="matrix(0.9969 0 0 0.9969 417.4971 -3.9926)">
		</image>
		<g>
			<path class="st0" d="M631.4,32.2h61c16.6,59,32.9,118.1,49.3,177.3c-22.9,0.1-45.8,0-68.6,0c-9.2-33.2-18.5-66.3-27.5-99.5
				c-36.3,50.8-71.9,102-108.1,152.9c-22.9,0-45.9,0-68.8,0C522.9,186,577.1,109,631.4,32.2z"/>
		</g>
	</g>
	<g>
		
			<image style="overflow:visible;opacity:0.3;" width="319" height="266" xlink:href="97FE95F0.png"  transform="matrix(0.9962 0 0 0.9962 693.5293 -3.9926)">
		</image>
		<g>
			<path class="st0" d="M813.4,32.2h129.2c6.5,1.2,13,3.6,18.1,7.9c6.4,5.3,10.2,13.1,11.9,21.1c3.1,14.6,0.5,29.5-2.2,44
				c-18.2,0-36.5,0-54.7,0c1.2-8.6,3.5-17.4,2.2-26.1c-33.3,0-66.5,0.1-99.8-0.1c-4.7,7.4-5.8,16.3-7.8,24.7
				c-2.9,13.6-5.8,27.1-8.6,40.6c-1.2,6-2.5,12.1-1.7,18.3c33.4,0,66.8,0,100.2,0c4.6-8,6.4-17.2,8.8-26c18.2,0,36.4-0.1,54.7,0
				c-4,17.9-9.6,36.1-21.2,50.6c-9.2,11.8-22.8,20.4-37.8,22.3c-42.7,0.1-85.4,0-128.1,0c-11-1.2-21.9-7.4-27-17.4
				c-6.6-12.5-5.9-27.3-3.9-40.9c3-15.6,6.5-31,9.7-46.5c3.4-18.1,9-36.5,20.8-51C785.4,42.2,798.9,34.4,813.4,32.2z"/>
		</g>
	</g>
	<g>
		
			<image style="overflow:visible;opacity:0.3;" width="291" height="266" xlink:href="97FE95EB.png"  transform="matrix(0.9962 0 0 0.9962 933.4767 -3.9926)">
		</image>
		<g>
			<path class="st0" d="M993.7,32.2h192.5c-3.3,15.6-6.6,31.2-9.9,46.8c-22.8,0-45.6,0-68.4,0c-9.4,43.4-18.5,87-27.8,130.4
				c-18.3,0-36.5,0-54.7,0c9.2-43.5,18.5-86.9,27.7-130.4c-22.8-0.1-45.7,0.1-68.5-0.1c3.5-15.6,6.6-31.2,10-46.7L993.7,32.2z"/>
		</g>
	</g>
	<g>
		
			<image style="overflow:visible;opacity:0.3;" width="156" height="215" xlink:href="97FE95EC.png"  transform="matrix(0.9936 0 0 0.9936 1127.4298 -3.8035)">
		</image>
		<g>
			<path class="st0" d="M1199.1,32.2h46.4c-2.3,10.6-4.5,21.2-6.7,31.8c-1.8,7.8-2.9,15.9-5.5,23.5c-7.2,23.7-14.3,47.3-21.5,71
				c-11.1,0-22.2,0-33.3,0c2.5-19.5,5.1-39,7.6-58.4c1.1-7.3,1.6-14.6,3.2-21.8C1192.6,62.9,1195.7,47.5,1199.1,32.2z"/>
		</g>
	</g>
	<g>
		
			<image style="overflow:visible;opacity:0.3;" width="144" height="130" xlink:href="97FE95ED.png"  transform="matrix(0.9923 0 0 0.9923 1110.4836 132.0074)">
		</image>
		<g>
			<path class="st0" d="M1170.2,168.4c15.4-0.2,30.8-0.1,46.2-0.1c-2.9,13.7-5.8,27.4-8.6,41.1c-15.4,0-30.8,0-46.1,0
				C1164.4,195.8,1167.4,182.1,1170.2,168.4z"/>
		</g>
	</g>
</g>
</svg>
