<?xml version="1.0" encoding="utf-8"?>
<!-- Generator: Adobe Illustrator 23.0.3, SVG Export Plug-In . SVG Version: 6.00 Build 0)  -->
<svg version="1.1" id="Layer_1" xmlns="http://www.w3.org/2000/svg" xmlns:xlink="http://www.w3.org/1999/xlink" x="0px" y="0px"
	 viewBox="0 0 300 83" style="enable-background:new 0 0 300 83;" xml:space="preserve">
<style type="text/css">
	.st0{font-family:'CCUpUpAndAway-Inline';}
	.st1{font-size:53.1764px;}
	.st2{fill:#424243;}
	.st3{fill:#FFFFFF;}
	.st4{fill:#2C437C;}
	.st5{fill:#3A5485;}
	.st6{fill:#4F6E9F;}
	.st7{fill:#E4E4E5;}
	.st8{fill:#CDCFD0;}
	.st9{fill:#DC8F2F;}
	.st10{fill:#B8BABB;}
	.st11{opacity:0.25;fill:#272425;}
	.st12{fill:#D05A2F;}
	.st13{font-family:'Play-Bold';}
	.st14{font-size:11.0055px;}
	.st15{font-family:'SourceSansPro-Bold';}
	.st16{font-size:4.2134px;}
</style>
<text transform="matrix(1 0 0 1 95.9602 63.7487)" class="st0 st1">IMPACT</text>
<g>
	<g>
		<circle class="st2" cx="43.9" cy="41.2" r="33.6"/>
		<circle class="st3" cx="43.9" cy="41.2" r="32.5"/>
		<path class="st4" d="M73.6,41.2C73.6,57.6,60.3,71,43.9,71c-16.4,0-29.7-13.3-29.7-29.7c0-0.2,0-0.5,0-0.7
			c0.4-16.1,13.6-29.1,29.7-29.1s29.4,13,29.7,29.1C73.6,40.8,73.6,41,73.6,41.2z"/>
		<path class="st5" d="M73.6,41.2c0,5.4-1.5,10.5-4,14.9C64.5,65,54.9,71,43.9,71c-11,0-20.6-6-25.8-14.9c-2.5-4.4-4-9.5-4-14.9
			c0-0.2,0-0.5,0-0.7c5-11.4,16.5-19.4,29.7-19.4s24.7,8,29.7,19.4C73.6,40.8,73.6,41,73.6,41.2z"/>
		<path class="st6" d="M69.7,56.1C64.5,65,54.9,71,43.9,71c-11,0-20.6-6-25.8-14.9c5.2-8.8,14.8-14.8,25.8-14.8
			C54.9,41.3,64.5,47.3,69.7,56.1z"/>
		<g>
			<g>
				<path class="st7" d="M32.7,51.1c0,0,3.5-5,6.9-5V37c-5.9,3.6-6.9,11.4-6.9,11.4V51.1z"/>
				<path class="st7" d="M32.2,52.3L32.2,52.3c0.2,0,0.4-0.2,0.4-0.4v-5c0-0.2-0.2-0.4-0.4-0.4l0,0c-0.2,0-0.4,0.2-0.4,0.4v5
					C31.8,52.1,32,52.3,32.2,52.3z"/>
				<path class="st7" d="M55.1,51.1c0,0-3.5-5-6.9-5V37c5.9,3.6,6.9,11.4,6.9,11.4V51.1z"/>
				<path class="st7" d="M55.6,52.3L55.6,52.3c-0.2,0-0.4-0.2-0.4-0.4v-5c0-0.2,0.2-0.4,0.4-0.4l0,0c0.2,0,0.4,0.2,0.4,0.4v5
					C56,52.1,55.8,52.3,55.6,52.3z"/>
			</g>
			<path class="st3" d="M44.3,16.4c1.9,1.7,9.7,10.3,5,31.2H38.5c-4.7-20.9,3-29.4,5-31.2C43.7,16.2,44.1,16.2,44.3,16.4z"/>
			<circle class="st8" cx="43.9" cy="30.9" r="3.9"/>
			<path class="st9" d="M40.5,30.9c0,1.9,1.5,3.4,3.4,3.4s3.4-1.5,3.4-3.4s-1.5-3.4-3.4-3.4S40.5,29,40.5,30.9z"/>
			<path class="st10" d="M39.1,51.5h9.6c0.2,0,0.4-0.2,0.5-0.4l0.5-3.5c0-0.3-0.2-0.5-0.5-0.5H38.6c-0.3,0-0.5,0.3-0.5,0.5l0.5,3.5
				C38.7,51.3,38.9,51.5,39.1,51.5z"/>
		</g>
		<polygon class="st3" points="48.7,51.5 43.9,51.5 39.1,51.5 37,71.9 43.9,71.9 50.8,71.9 		"/>
		<g>
			<g>
				<path class="st3" d="M33.5,28.4c-0.4,0.5-1,0.8-1.5,1.1c-1.1,0.4-2.3,0.4-3.4,0c-0.4-0.2-0.8-0.4-1.2-0.7c0,0,0,0,0,0
					c-1.4-1.3-1.8-3.3-1-4.9c0.2-0.4,0.4-0.8,0.7-1.1c0.2-0.2,0.5-0.5,0.7-0.6c1.6-1.1,3.8-1,5.3,0.3c1.6,1.5,1.9,4,0.6,5.7
					C33.7,28.2,33.6,28.3,33.5,28.4z"/>
				<path class="st10" d="M34.6,25.5c0,0.7-0.1,1.3-0.4,1.8c-0.6-0.1-1-0.6-1-1.2c0-0.7,0.5-1.2,1.2-1.2c0.1,0,0.1,0,0.2,0
					C34.6,25.2,34.6,25.4,34.6,25.5z"/>
				<circle class="st10" cx="32.2" cy="24.5" r="0.8"/>
				<path class="st10" d="M31.7,29.6c-0.4,0.1-0.9,0.2-1.4,0.2c0,0,0,0,0,0c0.1-0.3,0.4-0.5,0.7-0.5C31.3,29.3,31.5,29.4,31.7,29.6z
					"/>
				<path class="st10" d="M30.9,22.8c0,0.2-0.2,0.4-0.4,0.4c-0.2,0-0.4-0.2-0.4-0.4c0-0.2,0.2-0.4,0.4-0.4
					C30.7,22.4,30.9,22.6,30.9,22.8z"/>
				<path class="st10" d="M27.3,25.5c0,0.6-0.5,1.1-1.1,1.2c-0.1-0.4-0.2-0.9-0.2-1.3c0-0.3,0-0.7,0.1-1h0
					C26.8,24.4,27.3,24.9,27.3,25.5z"/>
			</g>
			<g>
				<path class="st3" d="M67.9,43.7c0,0.5-0.1,0.9-0.3,1.3c-0.3,0.7-1,1.3-1.8,1.6c-0.3,0.1-0.6,0.2-1,0.2c0,0,0,0,0,0
					c-1.3,0-2.5-0.9-2.9-2.1c-0.1-0.3-0.2-0.6-0.2-0.9c0-0.2,0-0.5,0.1-0.7c0.3-1.3,1.5-2.3,2.9-2.3c1.6,0,2.8,1.2,3,2.7
					C67.9,43.4,67.9,43.5,67.9,43.7z"/>
				<path class="st10" d="M67.9,43.7c0,0.5-0.1,0.9-0.3,1.3c-0.4-0.1-0.7-0.4-0.7-0.8c0-0.5,0.4-0.8,0.8-0.8c0,0,0.1,0,0.1,0
					C67.9,43.4,67.9,43.5,67.9,43.7z"/>
				<path class="st10" d="M65.4,41.8c0,0.3-0.2,0.6-0.6,0.6s-0.6-0.2-0.6-0.6c0-0.3,0.2-0.6,0.6-0.6S65.4,41.5,65.4,41.8z"/>
				<path class="st10" d="M65.9,46.5c-0.3,0.1-0.6,0.2-1,0.2c0,0,0,0,0,0c0.1-0.2,0.3-0.4,0.5-0.4C65.6,46.3,65.8,46.4,65.9,46.5z"
					/>
				<path class="st10" d="M64.9,44.6c0,0.2-0.1,0.3-0.3,0.3c-0.2,0-0.3-0.1-0.3-0.3s0.1-0.3,0.3-0.3C64.7,44.3,64.9,44.5,64.9,44.6z
					"/>
				<path class="st10" d="M62.8,43.8c0,0.4-0.3,0.8-0.8,0.8c-0.1-0.3-0.2-0.6-0.2-0.9c0-0.2,0-0.5,0.1-0.7h0
					C62.4,43,62.8,43.3,62.8,43.8z"/>
			</g>
			<path class="st10" d="M20.9,43.8l0.3,0.5c0,0.1,0.1,0.1,0.2,0.2l0.6,0.1L21.5,45c-0.1,0.1-0.1,0.2-0.1,0.2l0.1,0.6L21,45.5
				c-0.1,0-0.2,0-0.3,0l-0.5,0.3l0.1-0.6c0-0.1,0-0.2-0.1-0.2l-0.4-0.4l0.6-0.1c0.1,0,0.2-0.1,0.2-0.2L20.9,43.8z"/>
			<path class="st10" d="M50.7,18.2l0.3,0.5c0,0.1,0.1,0.1,0.2,0.2l0.6,0.1c0.2,0,0.3,0.3,0.2,0.5l-0.4,0.4
				c-0.1,0.1-0.1,0.2-0.1,0.2l0.1,0.6c0,0.2-0.2,0.4-0.4,0.3l-0.5-0.3c-0.1,0-0.2,0-0.3,0L49.8,21c-0.2,0.1-0.4-0.1-0.4-0.3l0.1-0.6
				c0-0.1,0-0.2-0.1-0.2L49,19.4c-0.2-0.2-0.1-0.4,0.2-0.5l0.6-0.1c0.1,0,0.2-0.1,0.2-0.2l0.3-0.5C50.3,18,50.6,18,50.7,18.2z"/>
			<polygon class="st10" points="56.9,56.6 57.1,57.1 57.7,57.2 57.3,57.6 57.4,58.2 56.9,57.9 56.3,58.2 56.4,57.6 56,57.2 
				56.6,57.1 			"/>
		</g>
		<path class="st11" d="M76.4,41.2c0,18-14.6,32.5-32.5,32.5v-65C61.8,8.7,76.4,23.3,76.4,41.2z"/>
	</g>
</g>
<polygon class="st3" points="60.3,75.1 28.4,75.1 27.2,66.8 61.5,66.8 "/>
<g>
	<polygon class="st12" points="27.6,72.6 13,72.6 18.7,66 13,59.4 27.6,59.4 	"/>
	<polygon class="st12" points="60.1,72.6 74.7,72.6 69,66 74.7,59.4 60.1,59.4 	"/>
</g>
<rect x="21.3" y="56.6" class="st9" width="45.2" height="13.2"/>
<g>
	<path class="st2" d="M56.7,71l0.3,0.5c0,0.1,0.1,0.1,0.2,0.2l0.6,0.1l-0.4,0.4c-0.1,0.1-0.1,0.2-0.1,0.3l0.1,0.6l-0.5-0.3
		c-0.1,0-0.2,0-0.3,0l-0.5,0.3l0.1-0.6c0-0.1,0-0.2-0.1-0.3l-0.4-0.4l0.6-0.1c0.1,0,0.2-0.1,0.2-0.2L56.7,71z"/>
	<path class="st2" d="M31,71l0.3,0.5c0,0.1,0.1,0.1,0.2,0.2l0.6,0.1l-0.4,0.4c-0.1,0.1-0.1,0.2-0.1,0.3l0.1,0.6l-0.5-0.3
		c-0.1,0-0.2,0-0.3,0l-0.5,0.3l0.1-0.6c0-0.1,0-0.2-0.1-0.3l-0.4-0.4l0.6-0.1c0.1,0,0.2-0.1,0.2-0.2L31,71z"/>
</g>
<text transform="matrix(1 0 0 1 23.5019 67.0333)" class="st3 st13 st14">IMPACT</text>
<text transform="matrix(1 0 0 1 34.499 73.9249)" class="st2 st15 st16">MODPACK</text>
<g>
	<path class="st2" d="M66.5,56.6v2.8h8.2L69,66l5.7,6.6H60.1v-2.8h-0.4L59,74.9H28.7L28,69.8h-0.4v2.8H13l5.7-6.6L13,59.4h8.2v-2.8
		H66.5 M67.6,55.5h-1.1H21.3h-1.1v1.1v1.7H13h-2.4l1.6,1.8l5.1,5.9l-5.1,5.9l-1.6,1.8H13h14.4l0.2,1.3l0.1,0.9h1H59h1l0.1-0.9
		l0.2-1.3h14.4h2.4l-1.6-1.8L70.5,66l5.1-5.9l1.6-1.8h-2.4h-7.1v-1.7V55.5L67.6,55.5z"/>
</g>
</svg>
