<svg xmlns="http://www.w3.org/2000/svg" xmlns:xlink="http://www.w3.org/1999/xlink" width="1287" height="318" viewBox="0 0 1287 318"><defs><style>.a2573e0a-7370-419d-89bd-e3b67924fb51{opacity:0.3;isolation:isolate;}.eb6b0c68-a973-457c-87ab-c36656a483d1{fill:#2770b7;}</style></defs><title>logoBlack</title><g id="b6f05cff-baed-4cfe-9fdb-17a01574f0a2" data-name="Слой 2"><g id="e452edf1-13fc-4c70-929c-4b0de2d16960" data-name="Layer 1"><image class="a2573e0a-7370-419d-89bd-e3b67924fb51" width="181" height="266" transform="translate(0 0.23) scale(0.99)" xlink:href="logoBlack1.png"/><path d="M88.14,36.2h54.73q-18.72,88.65-37.64,177.26-27.37,0-54.76,0Q69.28,124.84,88.14,36.2Z"/><image class="a2573e0a-7370-419d-89bd-e3b67924fb51" width="364" height="266" transform="translate(68.18)" xlink:href="logoBlack2.png"/><path d="M156.85,36.2h66.73c9.94,35.26,19.6,70.6,29.45,105.88Q290.24,89.15,327.44,36.2h66.67c-2.05,11.31-4.74,22.5-7,33.77q-15.27,71.75-30.51,143.5-27.39,0-54.79,0c5.24-24.35,10.34-48.73,15.57-73.09-17.22,24.3-34.28,48.72-51.39,73.09-18.71,0-37.42,0-56.13,0-6.89-24.4-13.41-48.9-20.49-73.24-4.91,24.46-10.28,48.83-15.46,73.23H119.16Q138,124.84,156.85,36.2Z"/><image class="a2573e0a-7370-419d-89bd-e3b67924fb51" width="308" height="266" transform="translate(320.08)" xlink:href="logoBlack3.png"/><path d="M408.17,36.2H556.41c9.59.9,19.64,4.15,26,11.84,7.59,9.11,8.62,21.8,7.36,33.13-15.18,21.85-30.63,43.54-46,65.27a65.71,65.71,0,0,1-13.51,1.94q-45.56,0-91.11,0-6.93,32.55-13.84,65.1H370.5Q389.36,124.84,408.17,36.2Zm41,65.23q42.1,0,84.21,0c2.32-5.55,3.17-11.52,4.06-17.41l-.89-1q-41.78-.06-83.56,0C451.72,89.17,450.28,95.26,449.2,101.43Z"/><image class="a2573e0a-7370-419d-89bd-e3b67924fb51" width="362" height="319" transform="translate(422.07)" xlink:href="logoBlack4.png"/><path d="M636,36.2h61q24.87,88.55,49.25,177.25c-22.88.05-45.76,0-68.63,0-9.16-33.16-18.46-66.28-27.48-99.47C613.82,164.8,578.15,216,542,266.91c-22.94,0-45.87,0-68.81,0Q554.63,151.56,636,36.2Z"/><image class="a2573e0a-7370-419d-89bd-e3b67924fb51" width="319" height="266" transform="translate(698.1)" xlink:href="logoBlack5.png"/><path d="M818,36.2H947.2c6.51,1.15,13,3.57,18.06,7.88,6.41,5.26,10.22,13.07,11.92,21.07,3.06,14.62.46,29.54-2.19,44-18.23,0-36.46,0-54.69,0,1.19-8.63,3.54-17.36,2.21-26.12-33.26,0-66.52.08-99.77-.06C818,90.35,817,99.31,815,107.67q-4.29,20.33-8.63,40.65c-1.21,6-2.47,12.12-1.66,18.25q50.07,0,100.16,0c4.57-8,6.38-17.21,8.77-26,18.22,0,36.44-.06,54.66,0-4,17.9-9.61,36.06-21.21,50.63-9.2,11.8-22.83,20.43-37.81,22.27q-64,.1-128.06,0c-11-1.17-21.86-7.36-27.05-17.4-6.56-12.51-5.89-27.29-3.89-40.85,3-15.56,6.51-31,9.72-46.5,3.42-18.09,8.95-36.47,20.78-51A59.57,59.57,0,0,1,818,36.2Z"/><image class="a2573e0a-7370-419d-89bd-e3b67924fb51" width="291" height="266" transform="translate(938.05)" xlink:href="logoBlack6.png"/><path d="M998.28,36.2h192.49c-3.25,15.63-6.62,31.23-9.92,46.84q-34.23,0-68.43,0c-9.4,43.45-18.49,87-27.8,130.44-18.25,0-36.5,0-54.74,0q13.78-65.22,27.68-130.41c-22.85-.06-45.69.07-68.54-.06,3.46-15.56,6.58-31.18,10-46.73Z"/><image class="a2573e0a-7370-419d-89bd-e3b67924fb51" width="156" height="215" transform="translate(1132 0.19) scale(0.99)" xlink:href="logoBlack7.png"/><path d="M1203.64,36.2h46.45q-3.39,15.9-6.7,31.83c-1.81,7.84-2.94,15.86-5.54,23.5q-10.74,35.5-21.5,71-16.63,0-33.28,0,3.77-29.23,7.58-58.45c1.07-7.25,1.56-14.6,3.23-21.76C1197.16,66.94,1200.26,51.54,1203.64,36.2Z"/><image class="a2573e0a-7370-419d-89bd-e3b67924fb51" width="144" height="130" transform="translate(1115.05 136) scale(0.99)" xlink:href="logoBlack8.png"/><path d="M1174.72,172.42c15.4-.18,30.82-.09,46.23,0q-4.37,20.53-8.64,41.09-23.07,0-46.13,0C1168.93,199.77,1172,186.12,1174.72,172.42Z"/><path class="eb6b0c68-a973-457c-87ab-c36656a483d1" d="M606.56,224.8h10.71l6,20.7,11.9-20.7h10.71l-5.93,42.35H629.17L630.9,255l1.8-8.55-.3-.06-7.6,14.53h-7.36l-3.64-14.53-.24.06L613,255l-1.68,12.2h-10.7Z"/><path class="eb6b0c68-a973-457c-87ab-c36656a483d1" d="M655.61,238.74c1.43-9.75,10.76-14.53,19.55-14.53s16.93,4.84,15.56,14.53l-2.1,14.47c-1.37,9.69-10.41,14.54-19.62,14.54-8.79,0-16.86-4.85-15.49-14.54Zm8.61,14.47c-.42,3.06,2.75,4.61,6,4.61,3.47,0,7.24-1.55,7.72-4.9L680,238.74c.48-3.17-2.51-4.79-6-4.79s-7.24,1.62-7.72,4.79Z"/><path class="eb6b0c68-a973-457c-87ab-c36656a483d1" d="M720.08,224.8c8.5,0,15.86,4.31,14.48,14.18l-2,14.23c-1.38,9.75-9.87,13.94-18.37,13.94H698.31l5.92-42.35Zm-4.18,32.3c2.93,0,5.56-1.61,5.86-3.89l2-14.23c.3-2.33-1.79-4.19-4.72-4.19h-5.45l-3.17,22.31Z"/><path class="eb6b0c68-a973-457c-87ab-c36656a483d1" d="M748.2,224.8h16.92c10.35,0,14.24,7.6,13.4,15.26-.9,8-6.82,14.71-17,14.71h-6.75L753,267.15H742.27Zm14,20.46c3.35.06,5.27-2.63,5.62-5.5s-1-5-4.12-5h-6.22L756,245.26Z"/><path class="eb6b0c68-a973-457c-87ab-c36656a483d1" d="M818,267.15H806.51l-1.61-8.49H793.59l-3.76,8.49H778.34L799,224.8h9.75Zm-14.3-18-1.25-12.38H802l-4.67,12.38Z"/><path class="eb6b0c68-a973-457c-87ab-c36656a483d1" d="M857.6,258.24c-5.21,7.42-11.31,9.51-16.63,9.51-8.32,0-16-4.85-14.66-14.48l2-14.59c1.31-9.57,10.4-14.47,18.9-14.47,5.2,0,11.18,2.21,13.52,9.74l-9.22,3.53c-.95-2.39-3.46-3.41-6-3.41-3.05.06-6.1,1.74-6.52,4.61l-2,14.59c-.42,2.76,2.21,4.49,5.2,4.49a7.41,7.41,0,0,0,6.64-3.83Z"/><path class="eb6b0c68-a973-457c-87ab-c36656a483d1" d="M894.32,224.8h13.34L888,245.62l13.7,21.53H888.22L879.37,252l-.42.48-2,14.65H866.15l5.92-42.35h10.77l-2.22,15.67Z"/></g></g></svg>