<?xml version="1.0" encoding="utf-8"?>
<!-- Generator: Adobe Illustrator 23.0.3, SVG Export Plug-In . SVG Version: 6.00 Build 0)  -->
<svg version="1.1" id="Layer_1" xmlns="http://www.w3.org/2000/svg" xmlns:xlink="http://www.w3.org/1999/xlink" x="0px" y="0px"
	 viewBox="0 0 300 83" style="enable-background:new 0 0 300 83;" xml:space="preserve">
<style type="text/css">
	.st0{fill:#FFFFFF;}
</style>
<g>
	<path class="st0" d="M111,23.7v40.2H98.7V23.7H111z M102.2,60.6h5.3V26.8h-5.3V60.6z"/>
	<path class="st0" d="M154.3,23.6v40.3H143V46.3l-7.9,13.3l-8.6-13.8v18.1h-11.2V23.6h12.4l7.5,12.9l7.7-12.9H154.3z M146.2,60.7
		h4.9V26.8h-6l-9.9,16.6l-10.4-16.6h-6.3v33.9h4.8V34.1l11.7,18.8l11.1-18.8V60.7z"/>
	<path class="st0" d="M190.7,37.2c0,3-0.7,5.8-2.2,8.3c-0.4,0.7-0.8,1.3-1.3,1.9c-0.5,0.6-0.9,1.1-1.3,1.5c-0.4,0.4-0.9,0.8-1.6,1.1
		c-0.7,0.4-1.2,0.6-1.6,0.9c-0.3,0.2-1,0.4-1.9,0.6c-0.9,0.2-1.5,0.4-1.8,0.5c-0.2,0.1-0.9,0.2-2,0.3c-1.1,0.1-1.7,0.2-1.9,0.2
		c-0.1,0-0.9,0.1-2.1,0.1c-1.3,0.1-2,0.1-2,0.1v11.2H159V23.7h18.7c3.7,0,6.8,1.3,9.3,4C189.5,30.3,190.7,33.5,190.7,37.2z
		 M187.8,37.2c0-2.8-1.1-5.2-3.4-7.3c-2.3-2.1-4.8-3.1-7.7-3.1h-14.4v33.7h5.1V49.7c0.2,0,0.9,0,2.1,0c1.2,0,1.9,0,2.3-0.1
		c0.4,0,1.2-0.1,2.2-0.1c1.1-0.1,1.9-0.1,2.4-0.3c0.5-0.1,1.3-0.3,2.2-0.5c0.9-0.2,1.7-0.4,2.3-0.7c0.6-0.3,1.2-0.6,1.9-1
		s1.3-0.8,1.8-1.4c0.5-0.5,0.9-1.1,1.3-1.8C187.2,42.1,187.8,39.8,187.8,37.2z M183.4,38c0,1.8-0.6,3.4-1.9,4.6
		c-1.2,1.2-2.7,2-4.2,2.4c-1.6,0.4-3.3,0.6-5.1,0.6h-4.7V30.9h7c2.6,0,4.8,0.5,6.4,1.6C182.5,33.7,183.4,35.5,183.4,38z M179.8,38
		c0-2.8-2-4.1-6-4.1c-1,0-2,0.1-3,0.2v8.5h0.7C177.1,42.4,179.8,40.9,179.8,38z"/>
	<path class="st0" d="M215.7,23.7L226,63.9h-12l-1.6-5.1h-9.7l-1.3,5.1h-12.8l11.1-40.2H215.7z M216.5,60.7h5.5l-8.9-33.8h-10.8
		l-9.6,33.8h5.6l1.3-5.1H215L216.5,60.7z M209.2,32.1l4.8,19.1h-13.5l5.5-19.1H209.2z M205,48.1h5.3l-2.7-10.5L205,48.1z"/>
	<path class="st0" d="M256.5,26.2c-1.1,3.1-2.2,6.3-3.2,9.4c-1.8-1.3-4-2-6.5-2c-2.7,0-5.1,1-7,2.9c-2,1.9-3,4.3-3,7
		c0,2.9,0.9,5.3,2.7,7c1.8,1.7,4.2,2.6,7.2,2.6c2.6,0,4.6-0.6,6-1.8l3.3,9.4c-3.4,2.1-7.2,3.2-11.3,3.2c-5.6,0-10.2-1.9-13.7-5.7
		c-3.5-3.8-5.2-8.6-5.2-14.2c0-5.9,2-10.9,5.9-14.9c3.9-4.1,8.8-6.1,14.6-6.1C250.6,23,254,24,256.5,26.2z M251.8,31.3l1.4-3.8
		c-1.7-1-4-1.5-6.9-1.5c-5.1,0-9.3,1.7-12.6,5.2s-4.9,7.7-4.9,12.8c0,4.9,1.6,8.9,4.7,12c3.1,3.1,7.1,4.7,12,4.7
		c2.7,0,5.1-0.5,7.3-1.5l-1.6-3.9c-1.5,0.7-3.2,1-5,1c-3.9,0-6.9-1.2-9-3.5c-2.2-2.3-3.2-5.4-3.2-9.4c0-3.8,1.2-6.9,3.7-9.4
		c2.4-2.5,5.5-3.7,9.3-3.7C248.7,30.5,250.3,30.7,251.8,31.3z"/>
	<path class="st0" d="M287.5,23.7v11h-8.1v29.1h-12.1V34.7h-7.8v-11H287.5z M275.9,31.5h8.4v-4.6h-21.6v4.6h8.1v29.1h5.2V31.5z"/>
</g>
</svg>
