<svg id="a973c6af-5fe5-4b68-ba4e-427ad0c96caf" data-name="Layer 1" xmlns="http://www.w3.org/2000/svg" xmlns:xlink="http://www.w3.org/1999/xlink" width="455.53mm" height="108.02mm" viewBox="0 0 1291.26 306.21"><defs><style>.bc249cb8-b381-4721-81ac-d6192defe8de{opacity:0.3;isolation:isolate;}.e9908c49-62cf-4afb-a006-ec8cfa8fd690{fill:#fff;}.a70c9ba3-01a5-488f-95e3-b2860f70b5d9{fill:#2770b7;}</style></defs><title>1111</title><image class="bc249cb8-b381-4721-81ac-d6192defe8de" width="181" height="266" transform="translate(-4.57 -3.76) scale(0.99)" xlink:href="11111.png"/><path class="e9908c49-62cf-4afb-a006-ec8cfa8fd690" d="M83.57,32.21H138.3q-18.72,88.65-37.64,177.26-27.37,0-54.76,0Q64.71,120.84,83.57,32.21Z"/><image class="bc249cb8-b381-4721-81ac-d6192defe8de" width="364" height="266" transform="translate(63.61 -3.99)" xlink:href="11112.png"/><path class="e9908c49-62cf-4afb-a006-ec8cfa8fd690" d="M152.28,32.21H219c9.94,35.26,19.6,70.6,29.45,105.88q37.21-52.93,74.41-105.88h66.67c-2.05,11.31-4.74,22.5-7,33.77Q367.25,137.73,352,209.48q-27.39,0-54.79,0c5.24-24.35,10.34-48.73,15.57-73.09-17.22,24.3-34.28,48.72-51.39,73.09-18.71,0-37.42,0-56.13,0-6.89-24.4-13.41-48.9-20.49-73.24-4.91,24.46-10.28,48.83-15.46,73.23q-27.36,0-54.73,0Q133.4,120.84,152.28,32.21Z"/><image class="bc249cb8-b381-4721-81ac-d6192defe8de" width="308" height="266" transform="translate(315.51 -3.99)" xlink:href="11113.png"/><path class="e9908c49-62cf-4afb-a006-ec8cfa8fd690" d="M403.6,32.21H551.84c9.59.9,19.64,4.15,26,11.84,7.59,9.11,8.62,21.8,7.36,33.13-15.18,21.85-30.63,43.54-46,65.27a65.71,65.71,0,0,1-13.51,1.94q-45.55,0-91.11,0-6.93,32.55-13.84,65.1-27.39,0-54.78,0Q384.79,120.84,403.6,32.21Zm41,65.23q42.11,0,84.21,0C531.16,91.9,532,85.93,532.9,80l-.89-1q-41.77-.06-83.56,0C447.15,85.18,445.71,91.27,444.63,97.44Z"/><image class="bc249cb8-b381-4721-81ac-d6192defe8de" width="362" height="319" transform="translate(417.5 -3.99)" xlink:href="11114.png"/><path class="e9908c49-62cf-4afb-a006-ec8cfa8fd690" d="M631.43,32.21h61q24.87,88.54,49.25,177.25c-22.88,0-45.76,0-68.63,0-9.16-33.16-18.46-66.28-27.48-99.47-36.27,50.8-71.94,102-108.09,152.91-22.94,0-45.87,0-68.81,0Q550.05,147.57,631.43,32.21Z"/><image class="bc249cb8-b381-4721-81ac-d6192defe8de" width="319" height="266" transform="translate(693.53 -3.99)" xlink:href="11115.png"/><path class="e9908c49-62cf-4afb-a006-ec8cfa8fd690" d="M813.43,32.21h129.2c6.51,1.15,13,3.57,18.06,7.88,6.41,5.26,10.22,13.07,11.92,21.07,3.06,14.62.46,29.54-2.19,44-18.23,0-36.46,0-54.69,0,1.19-8.63,3.54-17.36,2.21-26.12-33.26,0-66.52.08-99.77-.06-4.73,7.36-5.78,16.32-7.76,24.68q-4.29,20.32-8.63,40.65c-1.21,6-2.47,12.12-1.66,18.25q50.07,0,100.16,0c4.57-8,6.38-17.21,8.77-26,18.22,0,36.44-.06,54.66,0-4,17.9-9.61,36.06-21.21,50.63-9.2,11.8-22.83,20.43-37.81,22.27q-64,.11-128.06,0c-11-1.17-21.86-7.36-27-17.4-6.56-12.51-5.89-27.29-3.89-40.85,2.95-15.56,6.51-31,9.72-46.5,3.42-18.09,9-36.47,20.78-51A59.57,59.57,0,0,1,813.43,32.21Z"/><image class="bc249cb8-b381-4721-81ac-d6192defe8de" width="291" height="266" transform="translate(933.48 -3.99)" xlink:href="11116.png"/><path class="e9908c49-62cf-4afb-a006-ec8cfa8fd690" d="M993.71,32.21H1186.2c-3.25,15.63-6.62,31.23-9.92,46.84q-34.23,0-68.43,0c-9.4,43.45-18.49,87-27.8,130.44-18.25,0-36.5,0-54.74,0Q1039.1,144.26,1053,79.07c-22.85-.06-45.69.07-68.54-.06,3.46-15.56,6.58-31.18,10-46.73Z"/><image class="bc249cb8-b381-4721-81ac-d6192defe8de" width="156" height="215" transform="translate(1127.43 -3.8) scale(0.99)" xlink:href="11117.png"/><path class="e9908c49-62cf-4afb-a006-ec8cfa8fd690" d="M1199.07,32.21h46.45q-3.39,15.9-6.7,31.83c-1.81,7.84-2.94,15.86-5.54,23.5q-10.74,35.5-21.5,71H1178.5q3.76-29.24,7.58-58.45c1.07-7.25,1.56-14.6,3.23-21.76C1192.59,63,1195.69,47.55,1199.07,32.21Z"/><image class="bc249cb8-b381-4721-81ac-d6192defe8de" width="144" height="130" transform="translate(1110.48 132.01) scale(0.99)" xlink:href="11118.png"/><path class="e9908c49-62cf-4afb-a006-ec8cfa8fd690" d="M1170.15,168.43c15.4-.18,30.82-.09,46.23-.05q-4.37,20.53-8.64,41.09-23.07,0-46.13,0C1164.36,195.78,1167.4,182.13,1170.15,168.43Z"/><path class="a70c9ba3-01a5-488f-95e3-b2860f70b5d9" d="M602,220.81H612.7l6,20.7,11.9-20.7h10.71l-5.93,42.35H624.6l1.73-12.2,1.8-8.56-.3-.06-7.6,14.54h-7.36l-3.64-14.54-.24.06-.54,8.56-1.68,12.2h-10.7Z"/><path class="a70c9ba3-01a5-488f-95e3-b2860f70b5d9" d="M651,234.75c1.43-9.75,10.76-14.54,19.55-14.54s16.93,4.85,15.56,14.54l-2.1,14.47c-1.37,9.69-10.41,14.54-19.62,14.54-8.79,0-16.86-4.85-15.49-14.54Zm8.61,14.47c-.42,3.05,2.75,4.61,6,4.61,3.47,0,7.24-1.56,7.72-4.91l2.09-14.17c.48-3.17-2.51-4.79-6-4.79s-7.24,1.62-7.72,4.79Z"/><path class="a70c9ba3-01a5-488f-95e3-b2860f70b5d9" d="M715.51,220.81c8.5,0,15.86,4.31,14.48,14.18l-2,14.23c-1.38,9.75-9.87,13.94-18.37,13.94H693.74l5.92-42.35Zm-4.18,32.3c2.93,0,5.56-1.62,5.86-3.89l2-14.23c.3-2.34-1.79-4.19-4.72-4.19h-5.45l-3.17,22.31Z"/><path class="a70c9ba3-01a5-488f-95e3-b2860f70b5d9" d="M743.63,220.81h16.92c10.35,0,14.24,7.6,13.4,15.25-.9,8-6.82,14.72-17.05,14.72h-6.75l-1.74,12.38H737.7Zm14,20.46c3.35.06,5.27-2.64,5.62-5.51s-1-5-4.12-5H753l-1.5,10.47Z"/><path class="a70c9ba3-01a5-488f-95e3-b2860f70b5d9" d="M813.43,263.16H801.94l-1.61-8.49H789l-3.76,8.49H773.77l20.7-42.35h9.75Zm-14.3-18-1.25-12.38h-.42l-4.67,12.38Z"/><path class="a70c9ba3-01a5-488f-95e3-b2860f70b5d9" d="M853,254.25c-5.21,7.41-11.31,9.51-16.63,9.51-8.32,0-16-4.85-14.66-14.48l2-14.59c1.31-9.57,10.4-14.48,18.9-14.48,5.2,0,11.18,2.22,13.52,9.75L847,233.49c-1-2.39-3.46-3.41-6-3.41-3,.06-6.1,1.74-6.52,4.61l-2,14.59c-.42,2.75,2.21,4.49,5.2,4.49a7.41,7.41,0,0,0,6.64-3.83Z"/><path class="a70c9ba3-01a5-488f-95e3-b2860f70b5d9" d="M889.75,220.81h13.34l-19.68,20.82,13.7,21.53H883.65L874.8,248l-.42.47-2,14.66H861.58l5.92-42.35h10.77l-2.22,15.67Z"/></svg>